<svg xmlns="http://www.w3.org/2000/svg" shape-rendering="geometricPrecision" text-rendering="geometricPrecision" image-rendering="optimizeQuality" fill-rule="evenodd" clip-rule="evenodd" viewBox="0 0 512 510.813"><path fill="#FF2121" d="M96.442 64.111c21.371-29.062 73.19-32.504 93.143 25.418a1938.59 1938.59 0 0010.52 30.754c2.256 6.431 4.901 15.129 8.041 24.192 22.114 63.761 58.34 62.283 98.652 13.929 19.052-22.846 26.665-47.257 57.116-58.727 37.074-13.964 75.032 10.133 80.917 45.948 7.667 46.686-21.935 56.918-52.95 74.837-9.712 5.611-20.563 12.405-30.207 19.899-14.583 11.333-26.413 24.275-27.403 37.174-2.601 33.865 106.693 55.345 146.24 77.473 55.074 25.954 30.69 95.31-17.87 95.717-13.34.114-26.876-5.579-40.588-16.622l-95.601-84.595c-6.189-5.571-14.528-5.232-19.668-.806-9.37 8.079 16.311 68.16 18.293 77.134 7.792 35.295-39.561 58.689-53.004 4.865-9.959-39.859-43.217-88.087-63.23-40.615l-3.669 11.615c-6.154 19.489-10.2 51.638-34.11 55.723-20.47 3.495-40.141-18.434-32.374-38.452 8.722-18.605 28.897-46.724 20.826-67.056-1.768-4.456-5.839-8.755-9.628-11.592-16.194-12.117-33.607-6.053-51.448-4.889-12.022.783-21.387-.106-28.718-2.954-23.123-8.979-28.536-33.32-19.641-51.242 15.839-31.899 46.467-14.311 73.769-25.073 61.998-24.425 14.306-81.036-9.142-109.524C94.89 122.567 73.31 95.563 96.442 64.111zm281.605 207.143c15.282-6.569 30.142-11.863 44.304-15.071 13.482-3.054 29.637-4.643 42.541-1.159 27.07 7.312 31.357 41.596 9.737 52.021-7.195 3.471-16.419 3.873-25.334-1.047-5.95-3.287-12.106-9.061-19.264-13.81-16.915-11.223-31.836-18.222-51.984-20.934zM246.343 142.088c-3.263-22.458-4.99-43.908-4.217-63.706.735-18.843 4.345-40.697 13.495-56.47 19.193-33.093 65.887-26.636 71.992 5.537 2.031 10.708-.694 23.004-10.328 33.014-6.43 6.686-16.215 12.758-24.999 20.512-20.761 18.328-35.257 35.523-45.943 61.113zm-135.63 77.55c-12.799-10.629-25.551-19.91-38.227-26.997-12.066-6.745-27.113-12.844-40.475-13.153-28.032-.651-41.847 31.018-24.064 47.136 5.92 5.367 14.65 8.364 24.596 6.167 6.639-1.464 14.178-5.264 22.382-7.792 19.403-5.974 35.697-8.464 55.788-5.361zM353.814 466.71c12.18 0 22.052 9.872 22.052 22.051 0 12.178-9.872 22.052-22.052 22.052s-22.052-9.874-22.052-22.052c0-12.179 9.872-22.051 22.052-22.051zm-110.623-.534c5.118 0 9.271 4.149 9.271 9.269 0 5.118-4.153 9.27-9.271 9.27-5.12 0-9.269-4.152-9.269-9.27a9.268 9.268 0 019.269-9.269zM68.895 383.4c7.445 0 13.482 6.037 13.482 13.485 0 7.444-6.037 13.481-13.482 13.481-7.447 0-13.484-6.037-13.484-13.481 0-7.448 6.037-13.485 13.484-13.485z"/><path fill="#FF8787" fill-rule="nonzero" d="M261.072 46.043c-6.587-9.972 13.959-37.969 29.136-33.919-12.869 8.157-22.613 21.26-29.136 33.919zM61.719 299.999c-1.974 10.534 24.737 26.518 35.87 17.894-13.471-2.265-26.08-9.701-35.87-17.894zm-50.74-84.56c-5.321-8.057 11.274-30.673 23.535-27.403-10.837 6.406-18.694 16.994-23.535 27.403zM478.39 289.56c5.622-11.708-7.466-28.693-23.532-27.403 11.591 5.636 18.694 15.321 23.532 27.403zm-83.637-99.809c23.001 2.695 42.588-34.11 28.742-51.73-1.206 24.381-14.959 37.982-28.742 51.73zm-275.346-67.417c-17.389.483-22.616-46.444-4.301-54.61-5.497 17.373-3.556 37.64 4.301 54.61z"/></svg>